<svg width="102" height="102" viewBox="0 0 102 102" fill="none" xmlns="http://www.w3.org/2000/svg">
<circle cx="51" cy="51" r="50.5" stroke="white"/>
<path d="M36.125 49.0089H59.8612L49.4912 38.6389C48.6625 37.8102 48.6625 36.4502 49.4912 35.6214C49.6878 35.4244 49.9213 35.2682 50.1784 35.1615C50.4355 35.0549 50.711 35 50.9894 35C51.2677 35 51.5432 35.0549 51.8003 35.1615C52.0574 35.2682 52.2909 35.4244 52.4875 35.6214L66.4912 49.6252C66.6882 49.8218 66.8445 50.0553 66.9511 50.3124C67.0578 50.5694 67.1127 50.845 67.1127 51.1233C67.1127 51.4016 67.0578 51.6772 66.9511 51.9343C66.8445 52.1913 66.6882 52.4249 66.4912 52.6214L52.4875 66.6252C52.2907 66.8219 52.0572 66.978 51.8001 67.0845C51.5431 67.1909 51.2676 67.2457 50.9894 67.2457C50.7111 67.2457 50.4356 67.1909 50.1786 67.0845C49.9215 66.978 49.688 66.8219 49.4912 66.6252C49.2945 66.4285 49.1384 66.1949 49.032 65.9378C48.9255 65.6808 48.8707 65.4053 48.8707 65.1271C48.8707 64.8488 48.9255 64.5733 49.032 64.3163C49.1384 64.0592 49.2945 63.8257 49.4912 63.6289L59.8612 53.2589H36.125C34.9562 53.2589 34 52.3027 34 51.1339C34 49.9652 34.9562 49.0089 36.125 49.0089Z" fill="white"/>
</svg>
