<svg width="101" height="101" viewBox="0 0 101 101" fill="none" xmlns="http://www.w3.org/2000/svg">
<path d="M51.1214 45.2725C51.0476 45.1782 50.9533 45.1019 50.8456 45.0494C50.738 44.997 50.6198 44.9697 50.5 44.9697C50.3803 44.9697 50.2621 44.997 50.1544 45.0494C50.0468 45.1019 49.9524 45.1782 49.8786 45.2725L38.8318 59.2487C38.7407 59.365 38.6842 59.5046 38.6687 59.6515C38.6532 59.7984 38.6794 59.9467 38.7442 60.0794C38.809 60.2121 38.9099 60.3239 39.0353 60.4021C39.1606 60.4802 39.3054 60.5214 39.4532 60.5211H46.7421V84.4297C46.7421 84.8637 47.0972 85.2188 47.5312 85.2188H53.4491C53.8831 85.2188 54.2382 84.8637 54.2382 84.4297V60.531H61.5469C62.2077 60.531 62.5727 59.7715 62.1683 59.2586L51.1214 45.2725Z" fill="#6E6E6E"/>
<path d="M80.0307 36.1687C75.5133 24.2538 64.0028 15.7812 50.5197 15.7812C37.0366 15.7812 25.5262 24.2439 21.0088 36.1588C12.556 38.378 6.3125 46.0812 6.3125 55.2344C6.3125 66.1333 15.1401 74.9609 26.0292 74.9609H29.9844C30.4184 74.9609 30.7734 74.6059 30.7734 74.1719V68.2539C30.7734 67.8199 30.4184 67.4648 29.9844 67.4648H26.0292C22.7053 67.4648 19.5786 66.1432 17.2509 63.7464C14.933 61.3595 13.7001 58.144 13.8086 54.8103C13.8974 52.2063 14.7851 49.7603 16.3928 47.6988C18.0399 45.5979 20.3479 44.0691 22.9124 43.3886L26.6506 42.4121L28.0216 38.8021C28.8698 36.5533 30.0534 34.4524 31.5428 32.5488C33.0131 30.6621 34.7548 29.0035 36.7111 27.6271C40.7649 24.7766 45.5388 23.2675 50.5197 23.2675C55.5007 23.2675 60.2745 24.7766 64.3283 27.6271C66.2911 29.0079 68.0271 30.6649 69.4967 32.5488C70.986 34.4524 72.1696 36.5632 73.0179 38.8021L74.379 42.4022L78.1073 43.3886C83.4532 44.8286 87.1914 49.6912 87.1914 55.2344C87.1914 58.4991 85.919 61.5765 83.611 63.8845C82.4792 65.023 81.1327 65.9256 79.6496 66.5402C78.1665 67.1548 76.5762 67.4691 74.9708 67.4648H71.0156C70.5816 67.4648 70.2266 67.8199 70.2266 68.2539V74.1719C70.2266 74.6059 70.5816 74.9609 71.0156 74.9609H74.9708C85.8599 74.9609 94.6875 66.1333 94.6875 55.2344C94.6875 46.0911 88.4638 38.3978 80.0307 36.1687Z" fill="#6E6E6E"/>
</svg>
