<svg xmlns="http://www.w3.org/2000/svg" viewBox="0 0 447.35 63.9"><title>u24-hrzntl-lockup-white</title><g id="Layer_2" data-name="Layer 2"><g id="Layer_1-2" data-name="Layer 1"><path d="M0,39.78V1.14H13.11V39.69c0,7,3.79,11.53,11.18,11.53S35.47,46.73,35.47,39.6V1.14H48.58V39.69c0,14.35-8.8,24.21-24.29,24.21C8.63,63.9,0,54.21,0,39.78Z" fill="#fff"/><path d="M60,1.14H81.23c12.94,0,22,7.75,22,19.28,0,8.27-3.87,14.7-11,18L105.7,62.75h-15L79.38,40.48H73.13V62.75H60ZM81.41,28.6c4.75,0,8.18-2.81,8.18-7.92,0-4-2.73-7.3-8.62-7.3H73.13V28.6Z" fill="#fff"/><path d="M111.86,51.49h5.28V12.41h-5.28V1.14h27.63C152.25,1.14,159,8.71,159,18.48a13.35,13.35,0,0,1-6.6,11.27v.53A14.76,14.76,0,0,1,161,43.83c0,12-9.25,18.92-19.63,18.92H111.86ZM139.31,25.7a6.34,6.34,0,1,0,0-12.67h-9.5V25.7ZM139.58,51c4.49,0,8-2.91,8-7.48s-3.61-7.4-8.1-7.4h-9.68V51Z" fill="#fff"/><path d="M206.29,50.43h-24.2l-4,12.32H164L184.9,1.14h18.48l20.69,61.61H210.25Zm-3.87-12-7.84-24.11h-1l-7.74,24.11Z" fill="#fff"/><path d="M230.66,1.14H253l14.26,48.41h.88V1.14h13V62.75H258.65l-13.91-48.4h-1v48.4H230.66Z" fill="#fff"/><path d="M353.45,45.5,375,27.37c3-2.46,5-5.19,5-8.54,0-3.16-2.64-6.33-7.12-6.33-4.23,0-7.31,3.43-7.31,8.09H353.18c0-10.2,6.87-20.59,19.89-20.59,12.59,0,20.16,8.63,20.16,18.22,0,8-3.53,13-9.51,17.78L366.65,49.64v1h26.93V62.75H353.45Z" fill="#fff"/><path d="M427.28,49.37H400.62V37.23L421.3,1.14h18.92V37.58h7.13V49.37h-7.13V62.75H427.28Zm0-11.79V14.35h-1L413.82,36.61v1Z" fill="#fff"/><path d="M320.88,15.15h-7.39a13.12,13.12,0,0,1-13.11,13.1v7.39a13.12,13.12,0,0,1,13.11,13.11h7.39A13.12,13.12,0,0,1,334,35.64V28.25A13.12,13.12,0,0,1,320.88,15.15ZM317.18,37A20.69,20.69,0,0,0,312.11,32a20.56,20.56,0,0,0,5.07-5.08A20.56,20.56,0,0,0,322.25,32,20.69,20.69,0,0,0,317.18,37Z" fill="#fff"/></g></g></svg>