<svg width="1440" height="395" viewBox="0 0 1440 395" fill="none" xmlns="http://www.w3.org/2000/svg">
<mask id="mask0" mask-type="alpha" maskUnits="userSpaceOnUse" x="0" y="0" width="1440" height="395">
<rect width="1440" height="395" transform="matrix(-1 0 0 1 1440 0)" fill="#FAFAFA"/>
</mask>
<g mask="url(#mask0)">
<path d="M1325.96 369.047C1588.59 369.047 1840.75 276.734 2059.61 222V695L-24.2999 695L-49.9921 310.228C-41.4281 287.354 75.6133 246.508 269.731 246.508C478.121 246.508 983.397 369.047 1325.96 369.047Z" fill="#171717"/>
<path opacity="0.31" d="M719.705 369.047C457.965 369.047 206.655 276.734 -11.462 222L-11.462 695L2065.39 695L2091 310.228C2082.46 287.354 1965.82 246.508 1772.36 246.508C1564.67 246.508 1061.11 369.047 719.705 369.047Z" fill="#252525"/>
</g>
</svg>
